<?xml version="1.0" encoding="utf-8"?>
<!-- Generator: Adobe Illustrator 17.1.0, SVG Export Plug-In . SVG Version: 6.00 Build 0)  -->
<!DOCTYPE svg PUBLIC "-//W3C//DTD SVG 1.1//EN" "http://www.w3.org/Graphics/SVG/1.1/DTD/svg11.dtd">
<svg version="1.1" id="Layer_1" xmlns="http://www.w3.org/2000/svg" xmlns:xlink="http://www.w3.org/1999/xlink" x="0px" y="0px"
	 viewBox="0 0 349.2 424" enable-background="new 0 0 349.2 424" xml:space="preserve">
<g>
	<path fill="#010101" d="M299.3,281.7c0,7.2,4.2,15,12.7,23.4c8.4,8.4,16.8,14.9,25,19.5l12.3,7v24.6H0v-24.6c1.3-0.6,3.1-1.6,5.4-3
		s6.4-3.9,12.2-7.7c5.8-3.8,10.8-7.5,15.1-11.1s8.2-8.1,11.8-13.4c3.6-5.3,5.4-10.2,5.4-14.7V167.1c0-34.6,8.9-64,26.6-88.3
		s42.2-39.1,73.2-44.6v-9.4c0-4.3,1.1-8.4,3.4-12.2c2.3-3.8,5.3-6.8,9-9.2s8-3.5,12.7-3.5c6.9,0,12.7,2.5,17.5,7.5
		s7.1,10.8,7.1,17.4v9.4c15.4,2.9,29.4,8.2,42,15.9c12.5,7.7,23,17.4,31.5,28.9c8.4,11.6,15,24.8,19.5,39.8c4.6,15,6.9,31,6.9,48.2
		V281.7z M45.3,331.6h258.5c-19.5-16.4-29.2-33-29.2-49.9V167.1c0-33.3-9.1-59.9-27.3-79.8s-42.4-29.9-72.6-29.9s-54.4,10-72.6,29.9
		S75,133.8,75,167.1v114.6C75,298.9,65.1,315.5,45.3,331.6z M208.8,380.3h26.3c-2.9,8.2-7.2,15.6-13,22.2s-12.8,11.8-21.1,15.7
		c-8.3,3.9-17,5.8-26.2,5.8c-14.1,0-26.7-4.1-37.7-12.2c-11-8.1-18.7-18.6-23-31.5h26.3c7.6,13.2,19,19.8,34.2,19.8
		S201.3,393.5,208.8,380.3z"/>
</g>
</svg>
