<?xml version="1.0" encoding="utf-8"?>
<!-- Generator: Adobe Illustrator 18.1.1, SVG Export Plug-In . SVG Version: 6.00 Build 0)  -->
<svg version="1.1" id="Layer_1" xmlns="http://www.w3.org/2000/svg" xmlns:xlink="http://www.w3.org/1999/xlink" x="0px" y="0px"
	 viewBox="0 -0.5 98.7 36" enable-background="new 0 -0.5 98.7 36" xml:space="preserve">
<g>
	<g>
		<path fill="#FFFFFF" d="M9,4.8H6.4V20h3c4.6,0,7.5-2.4,7.5-7.6C16.8,7.1,14.2,4.8,9,4.8z M9,25.1c-0.1,0-9,0-9,0V-0.5
			c0,0,7.7,0,9.5,0c8.8,0,13.9,5,13.9,12.6C23.2,20,18.2,25.1,9,25.1z"/>
	</g>
	<g>
		<path fill="#FFFFFF" d="M40.2,22.9c0.6,0,1.4-0.3,2.1-0.7V11.8c-0.8-1.1-1.5-1.6-3-1.6c-1.6,0-3.3,1.7-3.3,6.3
			C35.8,20.7,37.5,22.9,40.2,22.9z M48.5,23.6v0.4l-5.9,1.3h-0.1l-0.3-1.8h-0.1l-0.5,0.4c-1.1,0.9-2.4,1.5-3.9,1.5
			c-3.3,0-6.4-2.4-6.4-7.6c0-5.1,3.8-8.5,8.1-8.5c1.1,0,1.9,0.1,2.7,0.4V4l-2.1-1.5V2.1l6.1-1.8l0.2,0.1v22.6L48.5,23.6z"/>
		<path fill="#FFFFFF" d="M58,17.7c-3,0.2-4,1.2-4,3c0,1.4,0.9,2.3,2.1,2.3c0.6,0,1.2-0.2,2-0.6L58,17.7L58,17.7z M62.1,22
			c0,1.3,0.5,2,2.2,2.2v0.4c-1.1,0.3-2.3,0.6-3.6,0.6c-1.3,0-2.5-0.4-2.7-2.1h-0.2c-1.2,1.3-2.6,2.1-4.4,2.1c-2.4,0-4-1.4-4-3.5
			c0-3.1,3.3-4.7,8.4-4.7v-3.1c0-1.9-0.7-3.2-3.4-3.2c-0.5,0-1,0-1.6,0.1c0.9,0.7,1.4,1.8,1.4,2.6c0,1.1-0.9,2.1-2.1,2.1
			c-1.4,0-2.1-1-2.1-2.2c0-2.8,4.3-4.2,7.4-4.2c2.9,0,4.6,1.5,4.6,4.5L62.1,22L62.1,22z"/>
		<path fill="#FFFFFF" d="M72.9,11.5c-0.7,0-1.4,0.1-2.2,0.3v10.5c0.9,1.1,2,1.4,3.1,1.4c1.8,0,3.2-1.7,3.2-6.2
			C76.8,13.5,75.4,11.5,72.9,11.5z M72.3,25.1c-1.7,0-4-0.2-5.8-0.5V3.8l-2.2-1.5V1.9l6.2-1.8l0.1,0.1v11l0.1,0.1
			c1.2-1.2,2.8-2.2,4.7-2.2c3.2,0,5.9,2.9,5.9,7.5C81.2,21.6,77.6,25.1,72.3,25.1z"/>
		<path fill="#FFFFFF" d="M91.2,10.1c-2.3,0-3.3,2.8-3.3,6.9s1,6.9,3.3,6.9s3.3-2.8,3.3-6.9C94.5,13,93.5,10.1,91.2,10.1z
			 M90.9,25.1c-5.2,0-7.6-3.8-7.6-8c0-4,2.8-8,8-8c5.2,0,7.6,3.8,7.6,8C98.9,21.1,96.1,25.1,90.9,25.1z"/>
	</g>
	<rect y="30.3" fill="#FFFFFF" width="22.2" height="5.2"/>
</g>
</svg>
