<?xml version="1.0" encoding="utf-8"?>
<!-- Generator: Adobe Illustrator 18.1.1, SVG Export Plug-In . SVG Version: 6.00 Build 0)  -->
<svg version="1.1" id="Layer_1" xmlns="http://www.w3.org/2000/svg" xmlns:xlink="http://www.w3.org/1999/xlink" x="0px" y="0px"
	 viewBox="432 260 110 40" enable-background="new 432 260 110 40" xml:space="preserve">
<g>
	<g>
		<path fill="#008CE3" d="M442.2,265.8h-2.9v16.9h3.3c5.1,0,8.3-2.7,8.3-8.4C450.9,268.4,448,265.8,442.2,265.8z M442.2,288.4
			c-0.1,0-10,0-10,0V260c0,0,8.6,0,10.5,0c9.8,0,15.4,5.6,15.4,14C458,282.7,452.4,288.4,442.2,288.4z"/>
	</g>
	<g>
		<path fill="#008CE3" d="M476.8,285.9c0.7,0,1.6-0.3,2.3-0.8v-11.5c-0.9-1.2-1.7-1.8-3.3-1.8c-1.8,0-3.7,1.9-3.7,7
			C472,283.5,473.8,285.9,476.8,285.9z M486.1,286.7v0.4l-6.5,1.4l-0.1,0l-0.3-2l-0.1,0l-0.5,0.4c-1.2,1-2.7,1.7-4.3,1.7
			c-3.7,0-7.1-2.7-7.1-8.4c0-5.7,4.2-9.4,9-9.4c1.2,0,2.1,0.1,3,0.4v-6.3l-2.3-1.7v-0.4l6.8-2l0.2,0.1v25.1L486.1,286.7z"/>
		<path fill="#008CE3" d="M496.6,280.2c-3.3,0.2-4.4,1.3-4.4,3.3c0,1.6,1,2.6,2.3,2.6c0.7,0,1.3-0.2,2.2-0.7V280.2L496.6,280.2z
			 M501.2,284.9c0,1.4,0.5,2.2,2.4,2.4l0,0.4c-1.2,0.3-2.5,0.7-4,0.7c-1.4,0-2.8-0.5-3-2.3l-0.2,0c-1.3,1.4-2.9,2.3-4.9,2.3
			c-2.7,0-4.4-1.6-4.4-3.9c0-3.4,3.7-5.2,9.3-5.2v-3.4c0-2.1-0.8-3.6-3.8-3.6c-0.5,0-1.1,0-1.8,0.1c1,0.8,1.5,2,1.5,2.9
			c0,1.2-1,2.3-2.3,2.3c-1.5,0-2.3-1.1-2.3-2.4c0-3.1,4.8-4.7,8.2-4.7c3.2,0,5.1,1.7,5.1,5L501.2,284.9L501.2,284.9z"/>
		<path fill="#008CE3" d="M513.1,273.3c-0.8,0-1.5,0.1-2.4,0.3v11.7c1,1.2,2.2,1.6,3.4,1.6c2,0,3.5-1.9,3.5-6.9
			C517.5,275.5,515.9,273.3,513.1,273.3z M512.5,288.4c-1.9,0-4.4-0.2-6.4-0.6v-23.1l-2.4-1.7v-0.4l6.9-2l0.1,0.1v12.2l0.1,0.1
			c1.3-1.3,3.1-2.4,5.2-2.4c3.6,0,6.5,3.2,6.5,8.3C522.4,284.5,518.4,288.4,512.5,288.4z"/>
		<path fill="#008CE3" d="M533.4,271.7c-2.6,0-3.7,3.1-3.7,7.7c0,4.6,1.1,7.7,3.7,7.7s3.7-3.1,3.7-7.7
			C537.1,274.9,536,271.7,533.4,271.7z M533.1,288.4c-5.8,0-8.4-4.2-8.4-8.9c0-4.4,3.1-8.9,8.9-8.9c5.8,0,8.4,4.2,8.4,8.9
			C542,283.9,538.9,288.4,533.1,288.4z"/>
	</g>
	<rect x="432" y="294.2" fill="#008CE3" width="24.9" height="5.8"/>
</g>
</svg>
