<?xml version="1.0" encoding="UTF-8" standalone="no"?>
<!DOCTYPE svg PUBLIC "-//W3C//DTD SVG 1.1//EN"
 "http://www.w3.org/Graphics/SVG/1.1/DTD/svg11.dtd">
<!-- Generated by graphviz version 2.38.0 (20140413.2041)
 -->
<!-- Title: controllers_diagram Pages: 1 -->
<svg width="992pt" height="963pt"
 viewBox="0.00 0.00 991.98 963.00" xmlns="http://www.w3.org/2000/svg" xmlns:xlink="http://www.w3.org/1999/xlink">
<g id="graph0" class="graph" transform="scale(1 1) rotate(0) translate(418.266 545.5)">
<title>controllers_diagram</title>
<polygon fill="white" stroke="none" points="-418.266,417.5 -418.266,-545.5 573.717,-545.5 573.717,417.5 -418.266,417.5"/>
<!-- _diagram_info -->
<g id="node1" class="node"><title>_diagram_info</title>
<text text-anchor="start" x="-279.688" y="228.9" font-family="Times,serif" font-size="13.00">Controllers diagram</text>
<text text-anchor="start" x="-279.688" y="241.9" font-family="Times,serif" font-size="13.00">Date: Mar 13 2015 &#45; 11:04</text>
<text text-anchor="start" x="-279.688" y="254.9" font-family="Times,serif" font-size="13.00">Migration version: 20150309170836</text>
<text text-anchor="start" x="-279.688" y="267.9" font-family="Times,serif" font-size="13.00">Generated by RailRoady 1.3.0</text>
<text text-anchor="start" x="-279.688" y="280.9" font-family="Times,serif" font-size="13.00">http://railroady.prestonlee.com</text>
</g>
<!-- ApplicationController -->
<g id="node2" class="node"><title>ApplicationController</title>
<path fill="none" stroke="black" d="M-95.6313,179C-95.6313,179 73.6313,179 73.6313,179 79.6313,179 85.6313,173 85.6313,167 85.6313,167 85.6313,-151 85.6313,-151 85.6313,-157 79.6313,-163 73.6313,-163 73.6313,-163 -95.6313,-163 -95.6313,-163 -101.631,-163 -107.631,-157 -107.631,-151 -107.631,-151 -107.631,167 -107.631,167 -107.631,173 -101.631,179 -95.6313,179"/>
<text text-anchor="middle" x="-11" y="-147.8" font-family="Times,serif" font-size="14.00">ApplicationController</text>
<polyline fill="none" stroke="black" points="-107.631,-141 85.6313,-141 "/>
<text text-anchor="start" x="-99.6313" y="-125.8" font-family="Times,serif" font-size="14.00">create</text>
<text text-anchor="start" x="-99.6313" y="-111.8" font-family="Times,serif" font-size="14.00">destroy</text>
<text text-anchor="start" x="-99.6313" y="-97.8" font-family="Times,serif" font-size="14.00">edit</text>
<text text-anchor="start" x="-99.6313" y="-83.8" font-family="Times,serif" font-size="14.00">index</text>
<text text-anchor="start" x="-99.6313" y="-69.8" font-family="Times,serif" font-size="14.00">new</text>
<text text-anchor="start" x="-99.6313" y="-55.8" font-family="Times,serif" font-size="14.00">render</text>
<text text-anchor="start" x="-99.6313" y="-41.8" font-family="Times,serif" font-size="14.00">show</text>
<text text-anchor="start" x="-99.6313" y="-27.8" font-family="Times,serif" font-size="14.00">update</text>
<polyline fill="none" stroke="black" points="-107.631,-21 85.6313,-21 "/>
<polyline fill="none" stroke="black" points="-107.631,3 85.6313,3 "/>
<text text-anchor="start" x="-99.6313" y="18.2" font-family="Times,serif" font-size="14.00">_layout</text>
<text text-anchor="start" x="-99.6313" y="32.2" font-family="Times,serif" font-size="14.00">action_to_be_rendered</text>
<text text-anchor="start" x="-99.6313" y="46.2" font-family="Times,serif" font-size="14.00">after_sign_out_path_for</text>
<text text-anchor="start" x="-99.6313" y="60.2" font-family="Times,serif" font-size="14.00">flash_success_message</text>
<text text-anchor="start" x="-99.6313" y="74.2" font-family="Times,serif" font-size="14.00">model_class</text>
<text text-anchor="start" x="-99.6313" y="88.2" font-family="Times,serif" font-size="14.00">model_instance_variable</text>
<text text-anchor="start" x="-99.6313" y="102.2" font-family="Times,serif" font-size="14.00">model_instance_variable=</text>
<text text-anchor="start" x="-99.6313" y="116.2" font-family="Times,serif" font-size="14.00">model_instance_variable_name</text>
<text text-anchor="start" x="-99.6313" y="130.2" font-family="Times,serif" font-size="14.00">model_name</text>
<text text-anchor="start" x="-99.6313" y="144.2" font-family="Times,serif" font-size="14.00">namespace</text>
<text text-anchor="start" x="-99.6313" y="158.2" font-family="Times,serif" font-size="14.00">respond</text>
<text text-anchor="start" x="-99.6313" y="172.2" font-family="Times,serif" font-size="14.00">saved_model</text>
</g>
<!-- DaboAdmin::AccountsController -->
<g id="node3" class="node"><title>DaboAdmin::AccountsController</title>
<path fill="none" stroke="black" d="M137.634,125C137.634,125 340.366,125 340.366,125 346.366,125 352.366,119 352.366,113 352.366,113 352.366,-79 352.366,-79 352.366,-85 346.366,-91 340.366,-91 340.366,-91 137.634,-91 137.634,-91 131.634,-91 125.634,-85 125.634,-79 125.634,-79 125.634,113 125.634,113 125.634,119 131.634,125 137.634,125"/>
<text text-anchor="middle" x="239" y="-75.8" font-family="Times,serif" font-size="14.00">DaboAdmin::AccountsController</text>
<polyline fill="none" stroke="black" points="125.634,-69 352.366,-69 "/>
<text text-anchor="start" x="133.634" y="-53.8" font-family="Times,serif" font-size="14.00">create</text>
<text text-anchor="start" x="133.634" y="-39.8" font-family="Times,serif" font-size="14.00">edit</text>
<text text-anchor="start" x="133.634" y="-25.8" font-family="Times,serif" font-size="14.00">new</text>
<text text-anchor="start" x="133.634" y="-11.8" font-family="Times,serif" font-size="14.00">update</text>
<polyline fill="none" stroke="black" points="125.634,-5 352.366,-5 "/>
<polyline fill="none" stroke="black" points="125.634,19 352.366,19 "/>
<text text-anchor="start" x="133.634" y="34.2" font-family="Times,serif" font-size="14.00">_layout</text>
<text text-anchor="start" x="133.634" y="48.2" font-family="Times,serif" font-size="14.00">account_users</text>
<text text-anchor="start" x="133.634" y="62.2" font-family="Times,serif" font-size="14.00">allowed_params</text>
<text text-anchor="start" x="133.634" y="76.2" font-family="Times,serif" font-size="14.00">flash_and_respond</text>
<text text-anchor="start" x="133.634" y="90.2" font-family="Times,serif" font-size="14.00">show_providers_for_selected_system</text>
<text text-anchor="start" x="133.634" y="104.2" font-family="Times,serif" font-size="14.00">virtual_system</text>
<text text-anchor="start" x="133.634" y="118.2" font-family="Times,serif" font-size="14.00">virtual_system_gid</text>
</g>
<!-- DaboAdmin::HospitalSystemsController -->
<g id="node4" class="node"><title>DaboAdmin::HospitalSystemsController</title>
<path fill="none" stroke="black" d="M-150.328,-199C-150.328,-199 70.3276,-199 70.3276,-199 76.3276,-199 82.3276,-205 82.3276,-211 82.3276,-211 82.3276,-293 82.3276,-293 82.3276,-299 76.3276,-305 70.3276,-305 70.3276,-305 -150.328,-305 -150.328,-305 -156.328,-305 -162.328,-299 -162.328,-293 -162.328,-293 -162.328,-211 -162.328,-211 -162.328,-205 -156.328,-199 -150.328,-199"/>
<text text-anchor="middle" x="-40" y="-289.8" font-family="Times,serif" font-size="14.00">DaboAdmin::HospitalSystemsController</text>
<polyline fill="none" stroke="black" points="-162.328,-283 82.3276,-283 "/>
<polyline fill="none" stroke="black" points="-162.328,-259 82.3276,-259 "/>
<polyline fill="none" stroke="black" points="-162.328,-235 82.3276,-235 "/>
<text text-anchor="start" x="-154.328" y="-219.8" font-family="Times,serif" font-size="14.00">_layout</text>
<text text-anchor="start" x="-154.328" y="-205.8" font-family="Times,serif" font-size="14.00">model_params</text>
</g>
<!-- DaboAdmin::ProvidersController -->
<g id="node5" class="node"><title>DaboAdmin::ProvidersController</title>
<path fill="none" stroke="black" d="M317.9,-307C317.9,-307 498.1,-307 498.1,-307 504.1,-307 510.1,-313 510.1,-319 510.1,-319 510.1,-401 510.1,-401 510.1,-407 504.1,-413 498.1,-413 498.1,-413 317.9,-413 317.9,-413 311.9,-413 305.9,-407 305.9,-401 305.9,-401 305.9,-319 305.9,-319 305.9,-313 311.9,-307 317.9,-307"/>
<text text-anchor="middle" x="408" y="-397.8" font-family="Times,serif" font-size="14.00">DaboAdmin::ProvidersController</text>
<polyline fill="none" stroke="black" points="305.9,-391 510.1,-391 "/>
<polyline fill="none" stroke="black" points="305.9,-367 510.1,-367 "/>
<polyline fill="none" stroke="black" points="305.9,-343 510.1,-343 "/>
<text text-anchor="start" x="313.9" y="-327.8" font-family="Times,serif" font-size="14.00">_layout</text>
<text text-anchor="start" x="313.9" y="-313.8" font-family="Times,serif" font-size="14.00">model_params</text>
</g>
<!-- DaboAdmin::ReportsController -->
<g id="node6" class="node"><title>DaboAdmin::ReportsController</title>
<path fill="none" stroke="black" d="M83.9551,-343C83.9551,-343 254.045,-343 254.045,-343 260.045,-343 266.045,-349 266.045,-355 266.045,-355 266.045,-421 266.045,-421 266.045,-427 260.045,-433 254.045,-433 254.045,-433 83.9551,-433 83.9551,-433 77.9551,-433 71.9551,-427 71.9551,-421 71.9551,-421 71.9551,-355 71.9551,-355 71.9551,-349 77.9551,-343 83.9551,-343"/>
<text text-anchor="middle" x="169" y="-417.8" font-family="Times,serif" font-size="14.00">DaboAdmin::ReportsController</text>
<polyline fill="none" stroke="black" points="71.9551,-411 266.045,-411 "/>
<text text-anchor="start" x="79.9551" y="-395.8" font-family="Times,serif" font-size="14.00">index</text>
<polyline fill="none" stroke="black" points="71.9551,-389 266.045,-389 "/>
<polyline fill="none" stroke="black" points="71.9551,-365 266.045,-365 "/>
<text text-anchor="start" x="79.9551" y="-349.8" font-family="Times,serif" font-size="14.00">_layout</text>
</g>
<!-- DaboAdmin::UsersController -->
<g id="node7" class="node"><title>DaboAdmin::UsersController</title>
<path fill="none" stroke="black" d="M-312.21,-55C-312.21,-55 -153.79,-55 -153.79,-55 -147.79,-55 -141.79,-61 -141.79,-67 -141.79,-67 -141.79,-149 -141.79,-149 -141.79,-155 -147.79,-161 -153.79,-161 -153.79,-161 -312.21,-161 -312.21,-161 -318.21,-161 -324.21,-155 -324.21,-149 -324.21,-149 -324.21,-67 -324.21,-67 -324.21,-61 -318.21,-55 -312.21,-55"/>
<text text-anchor="middle" x="-233" y="-145.8" font-family="Times,serif" font-size="14.00">DaboAdmin::UsersController</text>
<polyline fill="none" stroke="black" points="-324.21,-139 -141.79,-139 "/>
<polyline fill="none" stroke="black" points="-324.21,-115 -141.79,-115 "/>
<polyline fill="none" stroke="black" points="-324.21,-91 -141.79,-91 "/>
<text text-anchor="start" x="-316.21" y="-75.8" font-family="Times,serif" font-size="14.00">_layout</text>
<text text-anchor="start" x="-316.21" y="-61.8" font-family="Times,serif" font-size="14.00">model_params</text>
</g>
<!-- DataCategoriesController -->
<g id="node8" class="node"><title>DataCategoriesController</title>
<path fill="none" stroke="black" d="M408.079,89C408.079,89 543.921,89 543.921,89 549.921,89 555.921,83 555.921,77 555.921,77 555.921,11 555.921,11 555.921,5 549.921,-1 543.921,-1 543.921,-1 408.079,-1 408.079,-1 402.079,-1 396.079,5 396.079,11 396.079,11 396.079,77 396.079,77 396.079,83 402.079,89 408.079,89"/>
<text text-anchor="middle" x="476" y="14.2" font-family="Times,serif" font-size="14.00">DataCategoriesController</text>
<polyline fill="none" stroke="black" points="396.079,21 555.921,21 "/>
<text text-anchor="start" x="404.079" y="36.2" font-family="Times,serif" font-size="14.00">index</text>
<polyline fill="none" stroke="black" points="396.079,43 555.921,43 "/>
<polyline fill="none" stroke="black" points="396.079,67 555.921,67 "/>
<text text-anchor="start" x="404.079" y="82.2" font-family="Times,serif" font-size="14.00">_layout</text>
</g>
<!-- MeasureSearchResultsController -->
<g id="node9" class="node"><title>MeasureSearchResultsController</title>
<path fill="none" stroke="black" d="M138.469,269C138.469,269 315.531,269 315.531,269 321.531,269 327.531,263 327.531,257 327.531,257 327.531,177 327.531,177 327.531,171 321.531,165 315.531,165 315.531,165 138.469,165 138.469,165 132.469,165 126.469,171 126.469,177 126.469,177 126.469,257 126.469,257 126.469,263 132.469,269 138.469,269"/>
<text text-anchor="middle" x="227" y="180.2" font-family="Times,serif" font-size="14.00">MeasureSearchResultsController</text>
<polyline fill="none" stroke="black" points="126.469,187 327.531,187 "/>
<text text-anchor="start" x="134.469" y="202.2" font-family="Times,serif" font-size="14.00">index</text>
<polyline fill="none" stroke="black" points="126.469,209 327.531,209 "/>
<polyline fill="none" stroke="black" points="126.469,233 327.531,233 "/>
<text text-anchor="start" x="134.469" y="248.2" font-family="Times,serif" font-size="14.00">_layout</text>
<text text-anchor="start" x="134.469" y="262.2" font-family="Times,serif" font-size="14.00">provider_subset</text>
</g>
<!-- NewsItemsController -->
<g id="node10" class="node"><title>NewsItemsController</title>
<path fill="none" stroke="black" d="M-402.266,413C-402.266,413 -289.734,413 -289.734,413 -283.734,413 -277.734,407 -277.734,401 -277.734,401 -277.734,335 -277.734,335 -277.734,329 -283.734,323 -289.734,323 -289.734,323 -402.266,323 -402.266,323 -408.266,323 -414.266,329 -414.266,335 -414.266,335 -414.266,401 -414.266,401 -414.266,407 -408.266,413 -402.266,413"/>
<text text-anchor="middle" x="-346" y="338.2" font-family="Times,serif" font-size="14.00">NewsItemsController</text>
<polyline fill="none" stroke="black" points="-414.266,345 -277.734,345 "/>
<text text-anchor="start" x="-406.266" y="360.2" font-family="Times,serif" font-size="14.00">index</text>
<polyline fill="none" stroke="black" points="-414.266,367 -277.734,367 "/>
<polyline fill="none" stroke="black" points="-414.266,391 -277.734,391 "/>
<text text-anchor="start" x="-406.266" y="406.2" font-family="Times,serif" font-size="14.00">_layout</text>
</g>
<!-- PristineExamplesController -->
<g id="node11" class="node"><title>PristineExamplesController</title>
<path fill="none" stroke="black" d="M-113.766,-343C-113.766,-343 33.7656,-343 33.7656,-343 39.7656,-343 45.7656,-349 45.7656,-355 45.7656,-355 45.7656,-437 45.7656,-437 45.7656,-443 39.7656,-449 33.7656,-449 33.7656,-449 -113.766,-449 -113.766,-449 -119.766,-449 -125.766,-443 -125.766,-437 -125.766,-437 -125.766,-355 -125.766,-355 -125.766,-349 -119.766,-343 -113.766,-343"/>
<text text-anchor="middle" x="-40" y="-433.8" font-family="Times,serif" font-size="14.00">PristineExamplesController</text>
<polyline fill="none" stroke="black" points="-125.766,-427 45.7656,-427 "/>
<polyline fill="none" stroke="black" points="-125.766,-403 45.7656,-403 "/>
<polyline fill="none" stroke="black" points="-125.766,-379 45.7656,-379 "/>
<text text-anchor="start" x="-117.766" y="-363.8" font-family="Times,serif" font-size="14.00">_layout</text>
<text text-anchor="start" x="-117.766" y="-349.8" font-family="Times,serif" font-size="14.00">model_params</text>
</g>
<!-- ProviderSearchResultsController -->
<g id="node12" class="node"><title>ProviderSearchResultsController</title>
<path fill="none" stroke="black" d="M138.462,-127C138.462,-127 315.538,-127 315.538,-127 321.538,-127 327.538,-133 327.538,-139 327.538,-139 327.538,-261 327.538,-261 327.538,-267 321.538,-273 315.538,-273 315.538,-273 138.462,-273 138.462,-273 132.462,-273 126.462,-267 126.462,-261 126.462,-261 126.462,-139 126.462,-139 126.462,-133 132.462,-127 138.462,-127"/>
<text text-anchor="middle" x="227" y="-257.8" font-family="Times,serif" font-size="14.00">ProviderSearchResultsController</text>
<polyline fill="none" stroke="black" points="126.462,-251 327.538,-251 "/>
<text text-anchor="start" x="134.462" y="-235.8" font-family="Times,serif" font-size="14.00">index</text>
<text text-anchor="start" x="134.462" y="-221.8" font-family="Times,serif" font-size="14.00">show</text>
<polyline fill="none" stroke="black" points="126.462,-215 327.538,-215 "/>
<polyline fill="none" stroke="black" points="126.462,-191 327.538,-191 "/>
<text text-anchor="start" x="134.462" y="-175.8" font-family="Times,serif" font-size="14.00">_layout</text>
<text text-anchor="start" x="134.462" y="-161.8" font-family="Times,serif" font-size="14.00">current_provider</text>
<text text-anchor="start" x="134.462" y="-147.8" font-family="Times,serif" font-size="14.00">current_user_settings</text>
<text text-anchor="start" x="134.462" y="-133.8" font-family="Times,serif" font-size="14.00">set_selected_provider_id</text>
</g>
<!-- PublicChartsController -->
<g id="node13" class="node"><title>PublicChartsController</title>
<path fill="none" stroke="black" d="M-275.938,125C-275.938,125 -154.062,125 -154.062,125 -148.062,125 -142.062,119 -142.062,113 -142.062,113 -142.062,-9 -142.062,-9 -142.062,-15 -148.062,-21 -154.062,-21 -154.062,-21 -275.938,-21 -275.938,-21 -281.938,-21 -287.938,-15 -287.938,-9 -287.938,-9 -287.938,113 -287.938,113 -287.938,119 -281.938,125 -275.938,125"/>
<text text-anchor="middle" x="-215" y="-5.8" font-family="Times,serif" font-size="14.00">PublicChartsController</text>
<polyline fill="none" stroke="black" points="-287.938,1 -142.062,1 "/>
<text text-anchor="start" x="-279.938" y="16.2" font-family="Times,serif" font-size="14.00">show</text>
<polyline fill="none" stroke="black" points="-287.938,23 -142.062,23 "/>
<polyline fill="none" stroke="black" points="-287.938,47 -142.062,47 "/>
<text text-anchor="start" x="-279.938" y="62.2" font-family="Times,serif" font-size="14.00">_layout</text>
<text text-anchor="start" x="-279.938" y="76.2" font-family="Times,serif" font-size="14.00">default_provider</text>
<text text-anchor="start" x="-279.938" y="90.2" font-family="Times,serif" font-size="14.00">providers</text>
<text text-anchor="start" x="-279.938" y="104.2" font-family="Times,serif" font-size="14.00">selected_provider</text>
<text text-anchor="start" x="-279.938" y="118.2" font-family="Times,serif" font-size="14.00">user_selected_provider</text>
</g>
<!-- StatusesController -->
<g id="node14" class="node"><title>StatusesController</title>
<path fill="none" stroke="black" d="M462.283,-451C462.283,-451 557.717,-451 557.717,-451 563.717,-451 569.717,-457 569.717,-463 569.717,-463 569.717,-529 569.717,-529 569.717,-535 563.717,-541 557.717,-541 557.717,-541 462.283,-541 462.283,-541 456.283,-541 450.283,-535 450.283,-529 450.283,-529 450.283,-463 450.283,-463 450.283,-457 456.283,-451 462.283,-451"/>
<text text-anchor="middle" x="510" y="-525.8" font-family="Times,serif" font-size="14.00">StatusesController</text>
<polyline fill="none" stroke="black" points="450.283,-519 569.717,-519 "/>
<text text-anchor="start" x="458.283" y="-503.8" font-family="Times,serif" font-size="14.00">show</text>
<polyline fill="none" stroke="black" points="450.283,-497 569.717,-497 "/>
<polyline fill="none" stroke="black" points="450.283,-473 569.717,-473 "/>
<text text-anchor="start" x="458.283" y="-457.8" font-family="Times,serif" font-size="14.00">_layout</text>
</g>
<!-- StyleguidesController -->
<g id="node15" class="node"><title>StyleguidesController</title>
<path fill="none" stroke="black" d="M-222.438,413C-222.438,413 -107.562,413 -107.562,413 -101.562,413 -95.562,407 -95.562,401 -95.562,401 -95.562,335 -95.562,335 -95.562,329 -101.562,323 -107.562,323 -107.562,323 -222.438,323 -222.438,323 -228.438,323 -234.438,329 -234.438,335 -234.438,335 -234.438,401 -234.438,401 -234.438,407 -228.438,413 -222.438,413"/>
<text text-anchor="middle" x="-165" y="338.2" font-family="Times,serif" font-size="14.00">StyleguidesController</text>
<polyline fill="none" stroke="black" points="-234.438,345 -95.562,345 "/>
<text text-anchor="start" x="-226.438" y="360.2" font-family="Times,serif" font-size="14.00">show</text>
<polyline fill="none" stroke="black" points="-234.438,367 -95.562,367 "/>
<polyline fill="none" stroke="black" points="-234.438,391 -95.562,391 "/>
<text text-anchor="start" x="-226.438" y="406.2" font-family="Times,serif" font-size="14.00">_layout</text>
</g>
<!-- UserProfiles::AdminsController -->
<g id="node16" class="node"><title>UserProfiles::AdminsController</title>
<path fill="none" stroke="black" d="M371.559,359C371.559,359 542.441,359 542.441,359 548.441,359 554.441,353 554.441,347 554.441,347 554.441,281 554.441,281 554.441,275 548.441,269 542.441,269 542.441,269 371.559,269 371.559,269 365.559,269 359.559,275 359.559,281 359.559,281 359.559,347 359.559,347 359.559,353 365.559,359 371.559,359"/>
<text text-anchor="middle" x="457" y="284.2" font-family="Times,serif" font-size="14.00">UserProfiles::AdminsController</text>
<polyline fill="none" stroke="black" points="359.559,291 554.441,291 "/>
<text text-anchor="start" x="367.559" y="306.2" font-family="Times,serif" font-size="14.00">show</text>
<polyline fill="none" stroke="black" points="359.559,313 554.441,313 "/>
<polyline fill="none" stroke="black" points="359.559,337 554.441,337 "/>
<text text-anchor="start" x="367.559" y="352.2" font-family="Times,serif" font-size="14.00">_layout</text>
</g>
<!-- UserProfiles::InfosController -->
<g id="node17" class="node"><title>UserProfiles::InfosController</title>
<path fill="none" stroke="black" d="M12.3413,395C12.3413,395 167.659,395 167.659,395 173.659,395 179.659,389 179.659,383 179.659,383 179.659,317 179.659,317 179.659,311 173.659,305 167.659,305 167.659,305 12.3413,305 12.3413,305 6.34131,305 0.341309,311 0.341309,317 0.341309,317 0.341309,383 0.341309,383 0.341309,389 6.34131,395 12.3413,395"/>
<text text-anchor="middle" x="90" y="320.2" font-family="Times,serif" font-size="14.00">UserProfiles::InfosController</text>
<polyline fill="none" stroke="black" points="0.341309,327 179.659,327 "/>
<text text-anchor="start" x="8.34131" y="342.2" font-family="Times,serif" font-size="14.00">show</text>
<polyline fill="none" stroke="black" points="0.341309,349 179.659,349 "/>
<polyline fill="none" stroke="black" points="0.341309,373 179.659,373 "/>
<text text-anchor="start" x="8.34131" y="388.2" font-family="Times,serif" font-size="14.00">_layout</text>
</g>
<!-- UserProfiles::MenusController -->
<g id="node18" class="node"><title>UserProfiles::MenusController</title>
<path fill="none" stroke="black" d="M-330.328,-343C-330.328,-343 -165.672,-343 -165.672,-343 -159.672,-343 -153.672,-349 -153.672,-355 -153.672,-355 -153.672,-421 -153.672,-421 -153.672,-427 -159.672,-433 -165.672,-433 -165.672,-433 -330.328,-433 -330.328,-433 -336.328,-433 -342.328,-427 -342.328,-421 -342.328,-421 -342.328,-355 -342.328,-355 -342.328,-349 -336.328,-343 -330.328,-343"/>
<text text-anchor="middle" x="-248" y="-417.8" font-family="Times,serif" font-size="14.00">UserProfiles::MenusController</text>
<polyline fill="none" stroke="black" points="-342.328,-411 -153.672,-411 "/>
<text text-anchor="start" x="-334.328" y="-395.8" font-family="Times,serif" font-size="14.00">show</text>
<polyline fill="none" stroke="black" points="-342.328,-389 -153.672,-389 "/>
<polyline fill="none" stroke="black" points="-342.328,-365 -153.672,-365 "/>
<text text-anchor="start" x="-334.328" y="-349.8" font-family="Times,serif" font-size="14.00">_layout</text>
</g>
<!-- UserProfiles::SettingsController -->
<g id="node19" class="node"><title>UserProfiles::SettingsController</title>
<path fill="none" stroke="black" d="M372.169,-127C372.169,-127 543.831,-127 543.831,-127 549.831,-127 555.831,-133 555.831,-139 555.831,-139 555.831,-205 555.831,-205 555.831,-211 549.831,-217 543.831,-217 543.831,-217 372.169,-217 372.169,-217 366.169,-217 360.169,-211 360.169,-205 360.169,-205 360.169,-139 360.169,-139 360.169,-133 366.169,-127 372.169,-127"/>
<text text-anchor="middle" x="458" y="-201.8" font-family="Times,serif" font-size="14.00">UserProfiles::SettingsController</text>
<polyline fill="none" stroke="black" points="360.169,-195 555.831,-195 "/>
<text text-anchor="start" x="368.169" y="-179.8" font-family="Times,serif" font-size="14.00">index</text>
<polyline fill="none" stroke="black" points="360.169,-173 555.831,-173 "/>
<polyline fill="none" stroke="black" points="360.169,-149 555.831,-149 "/>
<text text-anchor="start" x="368.169" y="-133.8" font-family="Times,serif" font-size="14.00">_layout</text>
</g>
<!-- Users::RegistrationsController -->
<g id="node20" class="node"><title>Users::RegistrationsController</title>
<path fill="none" stroke="black" d="M-365.545,-217C-365.545,-217 -202.455,-217 -202.455,-217 -196.455,-217 -190.455,-223 -190.455,-229 -190.455,-229 -190.455,-295 -190.455,-295 -190.455,-301 -196.455,-307 -202.455,-307 -202.455,-307 -365.545,-307 -365.545,-307 -371.545,-307 -377.545,-301 -377.545,-295 -377.545,-295 -377.545,-229 -377.545,-229 -377.545,-223 -371.545,-217 -365.545,-217"/>
<text text-anchor="middle" x="-284" y="-291.8" font-family="Times,serif" font-size="14.00">Users::RegistrationsController</text>
<polyline fill="none" stroke="black" points="-377.545,-285 -190.455,-285 "/>
<polyline fill="none" stroke="black" points="-377.545,-261 -190.455,-261 "/>
<text text-anchor="start" x="-369.545" y="-245.8" font-family="Times,serif" font-size="14.00">after_update_path_for</text>
<polyline fill="none" stroke="black" points="-377.545,-239 -190.455,-239 "/>
<text text-anchor="start" x="-369.545" y="-223.8" font-family="Times,serif" font-size="14.00">_layout</text>
</g>
<!-- Users::SessionsController -->
<g id="node21" class="node"><title>Users::SessionsController</title>
<path fill="none" stroke="black" d="M408.279,233C408.279,233 545.721,233 545.721,233 551.721,233 557.721,227 557.721,221 557.721,221 557.721,141 557.721,141 557.721,135 551.721,129 545.721,129 545.721,129 408.279,129 408.279,129 402.279,129 396.279,135 396.279,141 396.279,141 396.279,221 396.279,221 396.279,227 402.279,233 408.279,233"/>
<text text-anchor="middle" x="477" y="144.2" font-family="Times,serif" font-size="14.00">Users::SessionsController</text>
<polyline fill="none" stroke="black" points="396.279,151 557.721,151 "/>
<text text-anchor="start" x="404.279" y="166.2" font-family="Times,serif" font-size="14.00">create</text>
<polyline fill="none" stroke="black" points="396.279,173 557.721,173 "/>
<polyline fill="none" stroke="black" points="396.279,197 557.721,197 "/>
<text text-anchor="start" x="404.279" y="212.2" font-family="Times,serif" font-size="14.00">_layout</text>
<text text-anchor="start" x="404.279" y="226.2" font-family="Times,serif" font-size="14.00">reminder</text>
</g>
</g>
</svg>
