<?xml version="1.0" encoding="UTF-8" standalone="no"?>
<!DOCTYPE svg PUBLIC "-//W3C//DTD SVG 1.1//EN"
 "http://www.w3.org/Graphics/SVG/1.1/DTD/svg11.dtd">
<!-- Generated by graphviz version 2.38.0 (20140413.2041)
 -->
<!-- Title: models_diagram Pages: 1 -->
<svg width="954pt" height="945pt"
 viewBox="0.00 0.00 954.19 945.00" xmlns="http://www.w3.org/2000/svg" xmlns:xlink="http://www.w3.org/1999/xlink">
<g id="graph0" class="graph" transform="scale(1 1) rotate(0) translate(4 941)">
<title>models_diagram</title>
<polygon fill="white" stroke="none" points="-4,4 -4,-941 950.193,-941 950.193,4 -4,4"/>
<!-- _diagram_info -->
<g id="node1" class="node"><title>_diagram_info</title>
<text text-anchor="start" x="8" y="-901.6" font-family="Times,serif" font-size="13.00">Models diagram</text>
<text text-anchor="start" x="8" y="-888.6" font-family="Times,serif" font-size="13.00">Date: Mar 13 2015 &#45; 11:03</text>
<text text-anchor="start" x="8" y="-875.6" font-family="Times,serif" font-size="13.00">Migration version: 20150309170836</text>
<text text-anchor="start" x="8" y="-862.6" font-family="Times,serif" font-size="13.00">Generated by RailRoady 1.3.0</text>
<text text-anchor="start" x="8" y="-849.6" font-family="Times,serif" font-size="13.00">http://railroady.prestonlee.com</text>
</g>
<!-- Account -->
<g id="node2" class="node"><title>Account</title>
<path fill="none" stroke="black" d="M179.965,-490.5C179.965,-490.5 329.41,-490.5 329.41,-490.5 335.41,-490.5 341.41,-496.5 341.41,-502.5 341.41,-502.5 341.41,-592.5 341.41,-592.5 341.41,-598.5 335.41,-604.5 329.41,-604.5 329.41,-604.5 179.965,-604.5 179.965,-604.5 173.965,-604.5 167.965,-598.5 167.965,-592.5 167.965,-592.5 167.965,-502.5 167.965,-502.5 167.965,-496.5 173.965,-490.5 179.965,-490.5"/>
<text text-anchor="middle" x="254.688" y="-589.3" font-family="Times,serif" font-size="14.00">Account</text>
<polyline fill="none" stroke="black" points="167.965,-582.5 341.41,-582.5 "/>
<text text-anchor="start" x="175.965" y="-567.3" font-family="Times,serif" font-size="14.00">id :integer</text>
<text text-anchor="start" x="175.965" y="-553.3" font-family="Times,serif" font-size="14.00">default_provider_id :integer</text>
<text text-anchor="start" x="175.965" y="-539.3" font-family="Times,serif" font-size="14.00">virtual_system_id :integer</text>
<text text-anchor="start" x="175.965" y="-525.3" font-family="Times,serif" font-size="14.00">virtual_system_type :string</text>
<text text-anchor="start" x="175.965" y="-511.3" font-family="Times,serif" font-size="14.00">created_at :datetime</text>
<text text-anchor="start" x="175.965" y="-497.3" font-family="Times,serif" font-size="14.00">updated_at :datetime</text>
</g>
<!-- AccountBundle -->
<g id="node3" class="node"><title>AccountBundle</title>
<path fill="none" stroke="black" d="M175.848,-220.5C175.848,-220.5 275.528,-220.5 275.528,-220.5 281.528,-220.5 287.528,-226.5 287.528,-232.5 287.528,-232.5 287.528,-280.5 287.528,-280.5 287.528,-286.5 281.528,-292.5 275.528,-292.5 275.528,-292.5 175.848,-292.5 175.848,-292.5 169.848,-292.5 163.848,-286.5 163.848,-280.5 163.848,-280.5 163.848,-232.5 163.848,-232.5 163.848,-226.5 169.848,-220.5 175.848,-220.5"/>
<text text-anchor="middle" x="225.688" y="-277.3" font-family="Times,serif" font-size="14.00">AccountBundle</text>
<polyline fill="none" stroke="black" points="163.848,-270.5 287.528,-270.5 "/>
<text text-anchor="start" x="171.848" y="-255.3" font-family="Times,serif" font-size="14.00">id :integer</text>
<text text-anchor="start" x="171.848" y="-241.3" font-family="Times,serif" font-size="14.00">account_id :integer</text>
<text text-anchor="start" x="171.848" y="-227.3" font-family="Times,serif" font-size="14.00">bundle_id :string</text>
</g>
<!-- Account&#45;&gt;AccountBundle -->
<g id="edge2" class="edge"><title>Account&#45;&gt;AccountBundle</title>
<path fill="none" stroke="#32b54c" d="M248.251,-482.354C242.779,-427.821 235.061,-350.904 230.218,-302.647"/>
<ellipse fill="none" stroke="#32b54c" cx="248.662" cy="-486.455" rx="4" ry="4"/>
<polygon fill="#32b54c" stroke="#32b54c" points="230.199,-302.457 233.678,-292.058 229.7,-297.482 229.201,-292.507 229.201,-292.507 229.201,-292.507 229.7,-297.482 224.723,-292.956 230.199,-302.457 230.199,-302.457"/>
<text text-anchor="middle" x="268.464" y="-460.8" font-family="Times,serif" font-size="14.00">bundles</text>
</g>
<!-- User -->
<g id="node10" class="node"><title>User</title>
<path fill="none" stroke="black" d="M317.41,-73.5C317.41,-73.5 497.966,-73.5 497.966,-73.5 503.966,-73.5 509.966,-79.5 509.966,-85.5 509.966,-85.5 509.966,-427.5 509.966,-427.5 509.966,-433.5 503.966,-439.5 497.966,-439.5 497.966,-439.5 317.41,-439.5 317.41,-439.5 311.41,-439.5 305.41,-433.5 305.41,-427.5 305.41,-427.5 305.41,-85.5 305.41,-85.5 305.41,-79.5 311.41,-73.5 317.41,-73.5"/>
<text text-anchor="middle" x="407.688" y="-424.3" font-family="Times,serif" font-size="14.00">User</text>
<polyline fill="none" stroke="black" points="305.41,-417.5 509.966,-417.5 "/>
<text text-anchor="start" x="313.41" y="-402.3" font-family="Times,serif" font-size="14.00">id :integer</text>
<text text-anchor="start" x="313.41" y="-388.3" font-family="Times,serif" font-size="14.00">email :string</text>
<text text-anchor="start" x="313.41" y="-374.3" font-family="Times,serif" font-size="14.00">created_at :datetime</text>
<text text-anchor="start" x="313.41" y="-360.3" font-family="Times,serif" font-size="14.00">updated_at :datetime</text>
<text text-anchor="start" x="313.41" y="-346.3" font-family="Times,serif" font-size="14.00">encrypted_password :string</text>
<text text-anchor="start" x="313.41" y="-332.3" font-family="Times,serif" font-size="14.00">reset_password_token :string</text>
<text text-anchor="start" x="313.41" y="-318.3" font-family="Times,serif" font-size="14.00">reset_password_sent_at :datetime</text>
<text text-anchor="start" x="313.41" y="-304.3" font-family="Times,serif" font-size="14.00">remember_created_at :datetime</text>
<text text-anchor="start" x="313.41" y="-290.3" font-family="Times,serif" font-size="14.00">sign_in_count :integer</text>
<text text-anchor="start" x="313.41" y="-276.3" font-family="Times,serif" font-size="14.00">current_sign_in_at :datetime</text>
<text text-anchor="start" x="313.41" y="-262.3" font-family="Times,serif" font-size="14.00">last_sign_in_at :datetime</text>
<text text-anchor="start" x="313.41" y="-248.3" font-family="Times,serif" font-size="14.00">current_sign_in_ip :inet</text>
<text text-anchor="start" x="313.41" y="-234.3" font-family="Times,serif" font-size="14.00">last_sign_in_ip :inet</text>
<text text-anchor="start" x="313.41" y="-220.3" font-family="Times,serif" font-size="14.00">failed_attempts :integer</text>
<text text-anchor="start" x="313.41" y="-206.3" font-family="Times,serif" font-size="14.00">unlock_token :string</text>
<text text-anchor="start" x="313.41" y="-192.3" font-family="Times,serif" font-size="14.00">locked_at :datetime</text>
<text text-anchor="start" x="313.41" y="-178.3" font-family="Times,serif" font-size="14.00">confirmation_token :string</text>
<text text-anchor="start" x="313.41" y="-164.3" font-family="Times,serif" font-size="14.00">confirmed_at :datetime</text>
<text text-anchor="start" x="313.41" y="-150.3" font-family="Times,serif" font-size="14.00">confirmation_sent_at :datetime</text>
<text text-anchor="start" x="313.41" y="-136.3" font-family="Times,serif" font-size="14.00">unconfirmed_email :string</text>
<text text-anchor="start" x="313.41" y="-122.3" font-family="Times,serif" font-size="14.00">is_dabo_admin :boolean</text>
<text text-anchor="start" x="313.41" y="-108.3" font-family="Times,serif" font-size="14.00">account_id :integer</text>
<text text-anchor="start" x="313.41" y="-94.3" font-family="Times,serif" font-size="14.00">password_changed_at :datetime</text>
<text text-anchor="start" x="313.41" y="-80.3" font-family="Times,serif" font-size="14.00">unique_session_id :string</text>
</g>
<!-- Account&#45;&gt;User -->
<g id="edge1" class="edge"><title>Account&#45;&gt;User</title>
<path fill="none" stroke="#bcdbe8" d="M288.757,-483.127C290.767,-479.364 292.755,-475.633 294.688,-472 298.78,-464.305 302.95,-456.451 307.158,-448.515"/>
<ellipse fill="none" stroke="#bcdbe8" cx="286.762" cy="-486.86" rx="4.00002" ry="4.00002"/>
<polygon fill="#bcdbe8" stroke="#bcdbe8" points="307.24,-448.36 315.899,-441.631 309.582,-443.942 311.923,-439.524 311.923,-439.524 311.923,-439.524 309.582,-443.942 307.947,-437.417 307.24,-448.36 307.24,-448.36"/>
</g>
<!-- DimensionSample -->
<g id="node4" class="node"><title>DimensionSample</title>
<polygon fill="none" stroke="black" stroke-dasharray="1,5" points="467.623,-897.5 347.752,-897.5 347.752,-861.5 467.623,-861.5 467.623,-897.5"/>
<text text-anchor="middle" x="407.688" y="-875.3" font-family="Times,serif" font-size="14.00">DimensionSample</text>
</g>
<!-- Feature -->
<g id="node5" class="node"><title>Feature</title>
<path fill="none" stroke="black" d="M497.182,-829.5C497.182,-829.5 606.193,-829.5 606.193,-829.5 612.193,-829.5 618.193,-835.5 618.193,-841.5 618.193,-841.5 618.193,-917.5 618.193,-917.5 618.193,-923.5 612.193,-929.5 606.193,-929.5 606.193,-929.5 497.182,-929.5 497.182,-929.5 491.182,-929.5 485.182,-923.5 485.182,-917.5 485.182,-917.5 485.182,-841.5 485.182,-841.5 485.182,-835.5 491.182,-829.5 497.182,-829.5"/>
<text text-anchor="middle" x="551.688" y="-914.3" font-family="Times,serif" font-size="14.00">Feature</text>
<polyline fill="none" stroke="black" points="485.182,-907.5 618.193,-907.5 "/>
<text text-anchor="start" x="493.182" y="-892.3" font-family="Times,serif" font-size="14.00">id :integer</text>
<text text-anchor="start" x="493.182" y="-878.3" font-family="Times,serif" font-size="14.00">key :string</text>
<text text-anchor="start" x="493.182" y="-864.3" font-family="Times,serif" font-size="14.00">enabled :boolean</text>
<text text-anchor="start" x="493.182" y="-850.3" font-family="Times,serif" font-size="14.00">created_at :datetime</text>
<text text-anchor="start" x="493.182" y="-836.3" font-family="Times,serif" font-size="14.00">updated_at :datetime</text>
</g>
<!-- HospitalSystem -->
<g id="node6" class="node"><title>HospitalSystem</title>
<path fill="none" stroke="black" d="M237.353,-850.5C237.353,-850.5 318.022,-850.5 318.022,-850.5 324.022,-850.5 330.022,-856.5 330.022,-862.5 330.022,-862.5 330.022,-896.5 330.022,-896.5 330.022,-902.5 324.022,-908.5 318.022,-908.5 318.022,-908.5 237.353,-908.5 237.353,-908.5 231.353,-908.5 225.353,-902.5 225.353,-896.5 225.353,-896.5 225.353,-862.5 225.353,-862.5 225.353,-856.5 231.353,-850.5 237.353,-850.5"/>
<text text-anchor="middle" x="277.688" y="-893.3" font-family="Times,serif" font-size="14.00">HospitalSystem</text>
<polyline fill="none" stroke="black" points="225.353,-886.5 330.022,-886.5 "/>
<text text-anchor="start" x="233.353" y="-871.3" font-family="Times,serif" font-size="14.00">id :integer</text>
<text text-anchor="start" x="233.353" y="-857.3" font-family="Times,serif" font-size="14.00">name :string</text>
</g>
<!-- HospitalSystem&#45;&gt;Account -->
<g id="edge4" class="edge"><title>HospitalSystem&#45;&gt;Account</title>
<path fill="none" stroke="#89cf55" d="M270.271,-842.257C267.05,-824.994 263.586,-804.012 261.688,-785 255.88,-726.849 254.366,-660.289 254.166,-612.627"/>
<ellipse fill="none" stroke="#89cf55" cx="271.075" cy="-846.479" rx="4.00001" ry="4.00001"/>
<ellipse fill="#89cf55" stroke="#89cf55" cx="254.155" cy="-608.55" rx="4" ry="4"/>
</g>
<!-- Provider -->
<g id="node9" class="node"><title>Provider</title>
<path fill="none" stroke="black" d="M282.503,-642.5C282.503,-642.5 428.872,-642.5 428.872,-642.5 434.872,-642.5 440.872,-648.5 440.872,-654.5 440.872,-654.5 440.872,-772.5 440.872,-772.5 440.872,-778.5 434.872,-784.5 428.872,-784.5 428.872,-784.5 282.503,-784.5 282.503,-784.5 276.503,-784.5 270.503,-778.5 270.503,-772.5 270.503,-772.5 270.503,-654.5 270.503,-654.5 270.503,-648.5 276.503,-642.5 282.503,-642.5"/>
<text text-anchor="middle" x="355.688" y="-769.3" font-family="Times,serif" font-size="14.00">Provider</text>
<polyline fill="none" stroke="black" points="270.503,-762.5 440.872,-762.5 "/>
<text text-anchor="start" x="278.503" y="-747.3" font-family="Times,serif" font-size="14.00">id :integer</text>
<text text-anchor="start" x="278.503" y="-733.3" font-family="Times,serif" font-size="14.00">name :string</text>
<text text-anchor="start" x="278.503" y="-719.3" font-family="Times,serif" font-size="14.00">zip_code :string</text>
<text text-anchor="start" x="278.503" y="-705.3" font-family="Times,serif" font-size="14.00">hospital_type :string</text>
<text text-anchor="start" x="278.503" y="-691.3" font-family="Times,serif" font-size="14.00">socrata_provider_id :string</text>
<text text-anchor="start" x="278.503" y="-677.3" font-family="Times,serif" font-size="14.00">state :string</text>
<text text-anchor="start" x="278.503" y="-663.3" font-family="Times,serif" font-size="14.00">city :string</text>
<text text-anchor="start" x="278.503" y="-649.3" font-family="Times,serif" font-size="14.00">hospital_system_id :integer</text>
</g>
<!-- HospitalSystem&#45;&gt;Provider -->
<g id="edge3" class="edge"><title>HospitalSystem&#45;&gt;Provider</title>
<path fill="none" stroke="#915e53" d="M294.682,-842.768C301.527,-828.376 309.716,-811.158 317.839,-794.08"/>
<ellipse fill="none" stroke="#915e53" cx="292.814" cy="-846.695" rx="4.00002" ry="4.00002"/>
<polygon fill="#915e53" stroke="#915e53" points="318.04,-793.656 326.399,-786.558 320.188,-789.14 322.336,-784.625 322.336,-784.625 322.336,-784.625 320.188,-789.14 318.272,-782.692 318.04,-793.656 318.04,-793.656"/>
</g>
<!-- LogLine -->
<g id="node7" class="node"><title>LogLine</title>
<path fill="none" stroke="black" d="M647.951,-822.5C647.951,-822.5 783.424,-822.5 783.424,-822.5 789.424,-822.5 795.424,-828.5 795.424,-834.5 795.424,-834.5 795.424,-924.5 795.424,-924.5 795.424,-930.5 789.424,-936.5 783.424,-936.5 783.424,-936.5 647.951,-936.5 647.951,-936.5 641.951,-936.5 635.951,-930.5 635.951,-924.5 635.951,-924.5 635.951,-834.5 635.951,-834.5 635.951,-828.5 641.951,-822.5 647.951,-822.5"/>
<text text-anchor="middle" x="715.688" y="-921.3" font-family="Times,serif" font-size="14.00">LogLine</text>
<polyline fill="none" stroke="black" points="635.951,-914.5 795.424,-914.5 "/>
<text text-anchor="start" x="643.951" y="-899.3" font-family="Times,serif" font-size="14.00">id :integer</text>
<text text-anchor="start" x="643.951" y="-885.3" font-family="Times,serif" font-size="14.00">heroku_request_id :string</text>
<text text-anchor="start" x="643.951" y="-871.3" font-family="Times,serif" font-size="14.00">data :text</text>
<text text-anchor="start" x="643.951" y="-857.3" font-family="Times,serif" font-size="14.00">logged_at :datetime</text>
<text text-anchor="start" x="643.951" y="-843.3" font-family="Times,serif" font-size="14.00">created_at :datetime</text>
<text text-anchor="start" x="643.951" y="-829.3" font-family="Times,serif" font-size="14.00">updated_at :datetime</text>
</g>
<!-- PristineExample -->
<g id="node8" class="node"><title>PristineExample</title>
<path fill="none" stroke="black" d="M825.182,-829.5C825.182,-829.5 934.193,-829.5 934.193,-829.5 940.193,-829.5 946.193,-835.5 946.193,-841.5 946.193,-841.5 946.193,-917.5 946.193,-917.5 946.193,-923.5 940.193,-929.5 934.193,-929.5 934.193,-929.5 825.182,-929.5 825.182,-929.5 819.182,-929.5 813.182,-923.5 813.182,-917.5 813.182,-917.5 813.182,-841.5 813.182,-841.5 813.182,-835.5 819.182,-829.5 825.182,-829.5"/>
<text text-anchor="middle" x="879.688" y="-914.3" font-family="Times,serif" font-size="14.00">PristineExample</text>
<polyline fill="none" stroke="black" points="813.182,-907.5 946.193,-907.5 "/>
<text text-anchor="start" x="821.182" y="-892.3" font-family="Times,serif" font-size="14.00">id :integer</text>
<text text-anchor="start" x="821.182" y="-878.3" font-family="Times,serif" font-size="14.00">name :string</text>
<text text-anchor="start" x="821.182" y="-864.3" font-family="Times,serif" font-size="14.00">description :text</text>
<text text-anchor="start" x="821.182" y="-850.3" font-family="Times,serif" font-size="14.00">created_at :datetime</text>
<text text-anchor="start" x="821.182" y="-836.3" font-family="Times,serif" font-size="14.00">updated_at :datetime</text>
</g>
<!-- Provider&#45;&gt;Account -->
<g id="edge5" class="edge"><title>Provider&#45;&gt;Account</title>
<path fill="none" stroke="#250655" d="M308.352,-635.638C303.431,-627.648 298.47,-619.592 293.656,-611.775"/>
<ellipse fill="none" stroke="#250655" cx="310.464" cy="-639.068" rx="4.00002" ry="4.00002"/>
<ellipse fill="#250655" stroke="#250655" cx="291.38" cy="-608.079" rx="4.00002" ry="4.00002"/>
</g>
<!-- OldPassword -->
<g id="node11" class="node"><title>OldPassword</title>
<ellipse fill="none" stroke="black" cx="407.688" cy="-18" rx="57.0477" ry="18"/>
<text text-anchor="middle" x="407.688" y="-13.8" font-family="Times,serif" font-size="14.00">OldPassword</text>
</g>
<!-- User&#45;&gt;OldPassword -->
<g id="edge6" class="edge"><title>User&#45;&gt;OldPassword</title>
<path fill="none" stroke="#5150b5" d="M407.688,-65.1753C407.688,-58.4316 407.688,-52.1935 407.688,-46.6249"/>
<ellipse fill="none" stroke="#5150b5" cx="407.688" cy="-69.2579" rx="4" ry="4"/>
<polygon fill="#5150b5" stroke="#5150b5" points="407.688,-46.1871 412.188,-36.187 407.688,-41.1871 407.688,-36.1871 407.688,-36.1871 407.688,-36.1871 407.688,-41.1871 403.188,-36.1871 407.688,-46.1871 407.688,-46.1871"/>
</g>
</g>
</svg>
