<?xml version="1.0" encoding="UTF-8" standalone="no"?>
<!DOCTYPE svg PUBLIC "-//W3C//DTD SVG 1.1//EN"
 "http://www.w3.org/Graphics/SVG/1.1/DTD/svg11.dtd">
<!-- Generated by graphviz version 2.38.0 (20140413.2041)
 -->
<!-- Title: models_diagram Pages: 1 -->
<svg width="848pt" height="386pt"
 viewBox="0.00 0.00 848.25 386.00" xmlns="http://www.w3.org/2000/svg" xmlns:xlink="http://www.w3.org/1999/xlink">
<g id="graph0" class="graph" transform="scale(1 1) rotate(0) translate(4 382)">
<title>models_diagram</title>
<polygon fill="white" stroke="none" points="-4,4 -4,-382 844.249,-382 844.249,4 -4,4"/>
<!-- _diagram_info -->
<g id="node1" class="node"><title>_diagram_info</title>
<text text-anchor="start" x="8" y="-363.6" font-family="Times,serif" font-size="13.00">Models diagram</text>
<text text-anchor="start" x="8" y="-350.6" font-family="Times,serif" font-size="13.00">Date: Mar 13 2015 &#45; 11:04</text>
<text text-anchor="start" x="8" y="-337.6" font-family="Times,serif" font-size="13.00">Migration version: 20150309170836</text>
<text text-anchor="start" x="8" y="-324.6" font-family="Times,serif" font-size="13.00">Generated by RailRoady 1.3.0</text>
<text text-anchor="start" x="8" y="-311.6" font-family="Times,serif" font-size="13.00">http://railroady.prestonlee.com</text>
</g>
<!-- Account -->
<g id="node2" class="node"><title>Account</title>
<ellipse fill="none" stroke="black" cx="279.688" cy="-177" rx="40.1317" ry="18"/>
<text text-anchor="middle" x="279.688" y="-172.8" font-family="Times,serif" font-size="14.00">Account</text>
</g>
<!-- AccountBundle -->
<g id="node3" class="node"><title>AccountBundle</title>
<ellipse fill="none" stroke="black" cx="250.688" cy="-91" rx="65.7235" ry="18"/>
<text text-anchor="middle" x="250.688" y="-86.8" font-family="Times,serif" font-size="14.00">AccountBundle</text>
</g>
<!-- Account&#45;&gt;AccountBundle -->
<g id="edge2" class="edge"><title>Account&#45;&gt;AccountBundle</title>
<path fill="none" stroke="#52459e" d="M271.186,-151.374C267.62,-141.045 263.466,-129.014 259.834,-118.493"/>
<ellipse fill="none" stroke="#52459e" cx="272.514" cy="-155.22" rx="4.00001" ry="4.00001"/>
<polygon fill="#52459e" stroke="#52459e" points="259.811,-118.426 260.801,-107.505 258.179,-113.7 256.548,-108.973 256.548,-108.973 256.548,-108.973 258.179,-113.7 252.294,-110.442 259.811,-118.426 259.811,-118.426"/>
<text text-anchor="middle" x="288.464" y="-129.8" font-family="Times,serif" font-size="14.00">bundles</text>
</g>
<!-- User -->
<g id="node10" class="node"><title>User</title>
<ellipse fill="none" stroke="black" cx="361.688" cy="-91" rx="27" ry="18"/>
<text text-anchor="middle" x="361.688" y="-86.8" font-family="Times,serif" font-size="14.00">User</text>
</g>
<!-- Account&#45;&gt;User -->
<g id="edge1" class="edge"><title>Account&#45;&gt;User</title>
<path fill="none" stroke="#296c6a" d="M301.323,-154.506C305.761,-150.057 310.389,-145.39 314.688,-141 323.276,-132.231 332.653,-122.489 340.757,-114.016"/>
<ellipse fill="none" stroke="#296c6a" cx="298.267" cy="-157.561" rx="4.00002" ry="4.00002"/>
<polygon fill="#296c6a" stroke="#296c6a" points="340.878,-113.89 351.037,-109.763 344.33,-110.273 347.782,-106.656 347.782,-106.656 347.782,-106.656 344.33,-110.273 344.527,-103.549 340.878,-113.89 340.878,-113.89"/>
</g>
<!-- DimensionSample -->
<g id="node4" class="node"><title>DimensionSample</title>
<polygon fill="none" stroke="black" stroke-dasharray="1,5" points="495.623,-359.5 375.752,-359.5 375.752,-323.5 495.623,-323.5 495.623,-359.5"/>
<text text-anchor="middle" x="435.688" y="-337.3" font-family="Times,serif" font-size="14.00">DimensionSample</text>
</g>
<!-- Feature -->
<g id="node5" class="node"><title>Feature</title>
<ellipse fill="none" stroke="black" cx="549.688" cy="-341.5" rx="36.7489" ry="18"/>
<text text-anchor="middle" x="549.688" y="-337.3" font-family="Times,serif" font-size="14.00">Feature</text>
</g>
<!-- HospitalSystem -->
<g id="node6" class="node"><title>HospitalSystem</title>
<ellipse fill="none" stroke="black" cx="291.688" cy="-341.5" rx="66.234" ry="18"/>
<text text-anchor="middle" x="291.688" y="-337.3" font-family="Times,serif" font-size="14.00">HospitalSystem</text>
</g>
<!-- HospitalSystem&#45;&gt;Account -->
<g id="edge4" class="edge"><title>HospitalSystem&#45;&gt;Account</title>
<path fill="none" stroke="#c85132" d="M289.812,-315.098C287.561,-284.618 283.81,-233.824 281.561,-203.362"/>
<ellipse fill="none" stroke="#c85132" cx="290.132" cy="-319.428" rx="4" ry="4"/>
<ellipse fill="#c85132" stroke="#c85132" cx="281.263" cy="-199.333" rx="4" ry="4"/>
</g>
<!-- Provider -->
<g id="node9" class="node"><title>Provider</title>
<ellipse fill="none" stroke="black" cx="336.688" cy="-250" rx="40.6248" ry="18"/>
<text text-anchor="middle" x="336.688" y="-245.8" font-family="Times,serif" font-size="14.00">Provider</text>
</g>
<!-- HospitalSystem&#45;&gt;Provider -->
<g id="edge3" class="edge"><title>HospitalSystem&#45;&gt;Provider</title>
<path fill="none" stroke="#a3d5c1" d="M304.163,-315.688C310.201,-303.68 317.449,-289.264 323.569,-277.092"/>
<ellipse fill="none" stroke="#a3d5c1" cx="302.161" cy="-319.67" rx="4.00002" ry="4.00002"/>
<polygon fill="#a3d5c1" stroke="#a3d5c1" points="323.698,-276.834 332.211,-269.921 325.944,-272.367 328.191,-267.9 328.191,-267.9 328.191,-267.9 325.944,-272.367 324.17,-265.879 323.698,-276.834 323.698,-276.834"/>
</g>
<!-- LogLine -->
<g id="node7" class="node"><title>LogLine</title>
<ellipse fill="none" stroke="black" cx="644.688" cy="-341.5" rx="40.6162" ry="18"/>
<text text-anchor="middle" x="644.688" y="-337.3" font-family="Times,serif" font-size="14.00">LogLine</text>
</g>
<!-- PristineExample -->
<g id="node8" class="node"><title>PristineExample</title>
<ellipse fill="none" stroke="black" cx="771.688" cy="-341.5" rx="68.6219" ry="18"/>
<text text-anchor="middle" x="771.688" y="-337.3" font-family="Times,serif" font-size="14.00">PristineExample</text>
</g>
<!-- Provider&#45;&gt;Account -->
<g id="edge5" class="edge"><title>Provider&#45;&gt;Account</title>
<path fill="none" stroke="#ae8ce2" d="M318.692,-226.584C312.066,-218.331 304.559,-208.98 297.913,-200.701"/>
<ellipse fill="none" stroke="#ae8ce2" cx="321.249" cy="-229.77" rx="4.00002" ry="4.00002"/>
<ellipse fill="#ae8ce2" stroke="#ae8ce2" cx="295.075" cy="-197.166" rx="4.00002" ry="4.00002"/>
</g>
<!-- OldPassword -->
<g id="node11" class="node"><title>OldPassword</title>
<ellipse fill="none" stroke="black" cx="361.688" cy="-18" rx="57.0477" ry="18"/>
<text text-anchor="middle" x="361.688" y="-13.8" font-family="Times,serif" font-size="14.00">OldPassword</text>
</g>
<!-- User&#45;&gt;OldPassword -->
<g id="edge6" class="edge"><title>User&#45;&gt;OldPassword</title>
<path fill="none" stroke="#1fe723" d="M361.688,-64.791C361.688,-58.832 361.688,-52.4496 361.688,-46.3988"/>
<ellipse fill="none" stroke="#1fe723" cx="361.688" cy="-68.8129" rx="4" ry="4"/>
<polygon fill="#1fe723" stroke="#1fe723" points="361.688,-46.0288 366.188,-36.0288 361.688,-41.0288 361.688,-36.0288 361.688,-36.0288 361.688,-36.0288 361.688,-41.0288 357.188,-36.0289 361.688,-46.0288 361.688,-46.0288"/>
</g>
</g>
</svg>
